<?xml version="1.0" standalone="no"?>
<!DOCTYPE svg PUBLIC "-//W3C//DTD SVG 20010904//EN"
 "http://www.w3.org/TR/2001/REC-SVG-20010904/DTD/svg10.dtd">
<svg version="1.0" xmlns="http://www.w3.org/2000/svg"
 width="2400.000000pt" height="2400.000000pt" viewBox="0 0 2400.000000 2400.000000"
 preserveAspectRatio="xMidYMid meet">
<metadata>
Created by potrace 1.11, written by Peter Selinger 2001-2013
</metadata>
<g transform="translate(0.000000,2400.000000) scale(0.100000,-0.100000)"
fill="#000000" stroke="none">
<path d="M0 12000 l0 -12000 12000 0 12000 0 0 12000 0 12000 -12000 0 -12000
0 0 -12000z m9742 3542 c7 -5 29 -13 48 -17 34 -7 154 -60 175 -77 6 -5 25
-19 43 -33 44 -31 112 -94 112 -103 0 -4 10 -19 23 -33 26 -29 56 -77 64 -101
3 -10 9 -18 14 -18 5 0 9 -7 9 -16 0 -9 6 -30 14 -47 8 -18 24 -54 36 -82 11
-27 25 -58 30 -67 6 -10 10 -23 10 -30 0 -7 6 -25 14 -39 23 -44 56 -147 56
-174 0 -14 4 -25 9 -25 5 0 12 -25 16 -55 3 -30 10 -57 15 -60 4 -3 11 -23 15
-45 4 -22 10 -42 15 -45 5 -3 11 -23 15 -45 4 -22 10 -42 15 -45 4 -3 11 -20
14 -39 4 -20 13 -48 21 -63 8 -15 15 -36 15 -45 0 -9 5 -20 10 -23 6 -3 10
-14 10 -23 0 -9 6 -29 14 -44 8 -15 17 -40 21 -57 4 -17 11 -33 16 -36 5 -4 9
-14 9 -23 0 -9 6 -29 14 -44 8 -15 17 -40 21 -57 4 -17 11 -33 16 -36 5 -4 9
-14 9 -23 1 -9 9 -35 20 -57 11 -22 19 -48 20 -57 0 -9 4 -19 9 -22 5 -3 12
-22 15 -41 4 -19 11 -35 16 -35 6 0 10 -8 10 -17 0 -10 6 -30 14 -45 8 -15 17
-40 21 -57 4 -17 11 -33 16 -36 5 -4 9 -14 9 -23 0 -9 6 -29 14 -44 8 -15 17
-42 21 -60 4 -18 11 -37 15 -43 4 -5 11 -26 15 -45 4 -19 11 -39 15 -45 4 -5
11 -26 15 -45 4 -19 11 -41 15 -50 5 -8 18 -44 30 -80 12 -36 25 -72 30 -80 4
-9 11 -30 14 -48 4 -17 12 -34 17 -37 5 -4 9 -14 9 -23 0 -9 6 -28 13 -42 7
-14 24 -54 37 -90 13 -36 30 -76 37 -90 7 -14 13 -33 13 -42 0 -9 4 -19 9 -22
5 -3 12 -22 15 -41 4 -19 11 -35 16 -35 6 0 10 -8 10 -17 0 -10 6 -30 14 -45
8 -15 17 -40 21 -57 4 -17 11 -31 16 -31 5 0 9 -6 9 -14 0 -12 19 -60 56 -143
8 -17 14 -36 14 -42 0 -6 5 -11 10 -11 6 0 10 -7 10 -16 0 -9 6 -30 14 -47 41
-91 56 -127 56 -136 0 -6 5 -11 10 -11 6 0 10 -7 10 -15 0 -13 56 -143 80
-187 10 -18 80 -150 141 -268 19 -36 37 -67 41 -70 3 -3 10 -18 13 -33 4 -15
10 -27 14 -27 4 0 12 -12 18 -27 7 -16 26 -50 43 -78 16 -27 36 -62 42 -77 7
-16 16 -28 20 -28 4 0 8 -5 8 -11 0 -9 41 -80 153 -264 7 -10 17 -24 22 -30 6
-6 19 -28 30 -48 11 -20 23 -37 27 -37 5 0 8 -6 8 -13 0 -7 7 -22 15 -32 9
-11 39 -56 67 -100 29 -44 57 -85 63 -91 5 -6 17 -22 25 -34 8 -12 33 -47 55
-78 23 -32 51 -74 64 -94 12 -21 27 -38 32 -38 5 0 9 -4 9 -10 0 -9 154 -219
169 -230 3 -3 31 -36 61 -75 52 -66 78 -95 210 -238 142 -154 381 -381 545
-518 28 -22 61 -51 75 -63 20 -17 109 -87 175 -139 6 -4 21 -16 34 -27 47 -39
50 -32 55 133 24 818 28 1235 17 2137 -7 520 -16 1442 -20 2050 -6 741 -12
1120 -20 1150 -18 74 -14 501 5 585 16 68 67 187 92 213 6 7 12 17 12 21 0 3
21 29 48 56 57 60 152 109 242 126 94 18 210 23 223 10 6 -6 20 -11 30 -11 23
0 170 -69 175 -81 2 -5 8 -9 13 -9 27 0 163 -127 175 -162 3 -10 9 -18 13 -18
12 0 51 -94 51 -122 0 -13 5 -29 12 -36 9 -9 9 -20 1 -45 -6 -17 -14 -58 -18
-90 -4 -32 -13 -70 -21 -85 -7 -15 -14 -35 -14 -44 0 -9 -4 -19 -9 -22 -5 -4
-12 -24 -16 -46 -4 -22 -10 -42 -15 -45 -4 -3 -11 -28 -15 -55 -4 -27 -10 -52
-15 -55 -4 -3 -11 -26 -15 -52 -4 -27 -11 -53 -15 -58 -13 -16 -33 -322 -37
-570 -2 -121 -8 -1163 -13 -2315 -9 -1970 -17 -2551 -36 -2582 -5 -7 -14 -60
-21 -118 -25 -211 -38 -299 -45 -306 -5 -4 -8 -14 -8 -23 0 -17 -37 -146 -50
-171 -4 -9 -11 -30 -15 -49 -4 -18 -13 -44 -21 -59 -8 -15 -14 -33 -14 -40 0
-7 -4 -20 -9 -30 -4 -9 -17 -35 -27 -57 -55 -118 -172 -218 -270 -232 -24 -3
-47 -10 -50 -14 -9 -15 -166 -10 -214 6 -47 16 -171 75 -180 86 -3 4 -16 10
-30 14 -14 4 -27 11 -30 14 -3 4 -34 25 -70 46 -36 21 -91 58 -123 82 -31 24
-61 43 -66 43 -5 0 -11 3 -13 8 -1 4 -34 32 -73 62 -38 30 -72 58 -75 61 -3 4
-46 37 -95 74 -50 37 -92 70 -95 74 -3 3 -27 24 -55 46 -75 60 -94 76 -149
127 -28 25 -64 56 -80 69 -15 12 -49 43 -75 68 -26 25 -96 93 -157 151 -114
110 -242 248 -380 409 -16 19 -40 46 -54 61 -14 14 -43 48 -65 75 -22 28 -47
57 -55 66 -25 26 -53 61 -107 132 -29 36 -56 72 -63 79 -10 12 -119 163 -150
208 -8 12 -23 33 -32 45 -10 13 -18 28 -18 33 0 6 -3 12 -8 14 -10 4 -112 157
-112 168 0 6 -3 10 -8 10 -4 0 -18 20 -32 45 -14 25 -28 45 -32 45 -5 0 -8 6
-8 13 0 7 -7 22 -15 32 -48 61 -205 318 -205 334 0 6 -4 11 -9 11 -5 0 -12 11
-15 25 -4 14 -11 25 -16 25 -6 0 -10 5 -10 11 0 6 -22 48 -49 93 -64 105 -107
185 -178 326 -32 63 -61 117 -65 120 -3 3 -10 18 -13 33 -4 15 -11 27 -15 27
-5 0 -11 14 -15 30 -4 17 -10 30 -15 30 -5 0 -11 14 -15 30 -4 17 -11 30 -16
30 -5 0 -9 5 -9 11 0 10 -12 38 -65 154 -50 108 -65 144 -65 154 0 6 -4 11
-10 11 -5 0 -10 5 -10 11 0 9 -13 40 -50 124 -5 11 -18 43 -30 70 -11 28 -25
58 -30 67 -6 10 -10 23 -10 29 0 6 -6 25 -14 42 -40 88 -56 127 -56 135 0 9
-22 60 -41 94 -5 10 -9 23 -9 30 -1 7 -9 31 -20 53 -11 22 -19 48 -20 57 0 9
-4 19 -9 22 -5 3 -12 22 -15 41 -4 19 -11 35 -15 35 -5 0 -12 16 -15 35 -4 19
-13 47 -21 62 -8 15 -15 35 -15 44 0 9 -3 19 -7 22 -3 4 -18 43 -33 87 -15 44
-30 83 -33 87 -4 3 -7 13 -7 22 0 9 -6 28 -14 43 -8 15 -17 42 -21 60 -4 18
-11 38 -15 43 -4 6 -11 26 -15 45 -4 19 -11 40 -15 45 -4 6 -11 26 -15 45 -4
19 -11 40 -15 45 -4 6 -11 26 -15 45 -4 19 -11 40 -15 45 -4 6 -11 26 -15 45
-4 19 -11 40 -15 45 -4 6 -11 26 -15 45 -4 19 -11 40 -15 45 -4 6 -11 27 -14
49 -4 21 -11 46 -16 55 -5 9 -18 50 -30 91 -12 41 -25 83 -30 92 -5 9 -13 35
-16 58 -4 22 -10 43 -15 45 -4 3 -11 26 -15 50 -3 25 -10 45 -15 45 -5 0 -9 9
-9 19 0 11 -5 32 -12 48 -11 27 -12 25 -20 -37 -4 -36 -12 -150 -18 -255 -6
-104 -15 -233 -21 -285 -27 -256 -49 -1763 -43 -2965 2 -434 7 -848 9 -920 17
-420 25 -563 34 -604 6 -25 15 -73 20 -106 11 -72 28 -143 40 -170 5 -11 12
-47 14 -81 3 -33 10 -69 15 -80 6 -10 16 -48 21 -84 5 -36 17 -96 26 -135 22
-93 37 -247 32 -316 -5 -59 -34 -117 -78 -154 -27 -23 -110 -65 -128 -65 -6 0
-11 -4 -11 -10 0 -5 -5 -10 -11 -10 -6 0 -25 -6 -42 -14 -93 -41 -151 -51
-303 -51 -164 0 -176 3 -250 62 -47 37 -109 125 -120 169 -4 16 -10 34 -14 39
-4 6 -11 28 -15 50 -4 22 -11 45 -16 51 -5 6 -11 87 -15 180 -3 93 -9 196 -15
229 -14 90 -33 1150 -33 1820 0 671 19 1699 34 1885 5 69 14 235 20 370 16
362 45 774 85 1170 38 383 45 442 59 560 9 69 22 182 29 251 8 69 17 132 22
139 4 7 9 124 9 259 1 149 6 254 13 266 5 11 21 42 34 69 55 112 177 203 324
240 35 9 334 -1 347 -12z"/>
</g>
</svg>
